<?xml version="1.0" standalone="no"?>
<!DOCTYPE svg PUBLIC "-//W3C//DTD SVG 20010904//EN"
 "http://www.w3.org/TR/2001/REC-SVG-20010904/DTD/svg10.dtd">
<svg version="1.0" xmlns="http://www.w3.org/2000/svg"
 width="229.000000pt" height="228.000000pt" viewBox="0 0 229.000000 228.000000"
 preserveAspectRatio="xMidYMid meet">

<g transform="translate(0.000000,228.000000) scale(0.100000,-0.100000)"
fill="#000000" stroke="none">
<path d="M1539 1941 l-26 -99 23 -5 c19 -3 25 2 34 29 12 36 13 37 47 28 18
-5 20 -10 12 -37 -12 -43 -12 -44 14 -49 23 -4 26 1 49 93 26 98 26 98 6 105
-22 7 -38 -9 -38 -38 0 -22 -12 -28 -39 -21 -20 5 -22 10 -16 41 6 34 -4 51
-30 52 -5 0 -22 -45 -36 -99z"/>
<path d="M1736 1974 c-4 -10 -2 -22 3 -27 14 -14 43 0 39 20 -4 24 -34 28 -42
7z"/>
<path d="M1880 1890 c-22 -93 16 -114 44 -25 18 59 16 75 -14 75 -13 0 -21
-12 -30 -50z"/>
<path d="M1707 1868 c-17 -66 -15 -81 11 -76 9 2 22 27 33 65 15 54 15 62 2
67 -27 11 -30 6 -46 -56z"/>
<path d="M1856 1785 c-9 -25 -8 -27 17 -23 12 2 22 10 22 18 0 21 -31 24 -39
5z"/>
<path d="M382 1284 c-139 -69 -197 -238 -129 -377 32 -65 70 -100 146 -135 45
-21 64 -24 125 -20 83 6 134 29 187 85 53 55 72 99 77 179 4 61 1 80 -20 125
-50 110 -142 169 -264 169 -55 0 -81 -5 -122 -26z m183 -199 c36 -35 29 -89
-14 -122 -46 -35 -121 7 -121 68 0 72 84 106 135 54z"/>
<path d="M1383 1285 c-100 -51 -156 -143 -156 -256 0 -114 61 -207 171 -257
46 -21 65 -24 126 -20 83 6 134 29 188 85 121 126 100 328 -45 427 -54 38 -62
40 -145 44 -78 3 -92 1 -139 -23z m182 -200 c36 -35 29 -89 -14 -122 -45 -34
-121 7 -121 65 0 74 84 109 135 57z"/>
</g>
</svg>
