<svg version="1.1" id="Layer_1" xmlns="http://www.w3.org/2000/svg" xmlns:xlink="http://www.w3.org/1999/xlink" x="0px" y="0px"
	 width="100%" viewBox="0 0 60 60" enable-background="new 0 0 60 60" xml:space="preserve">
<path fill="#AFFFEB" opacity="1.000000" stroke="none"
	d="
M21.000000,61.000000
	C19.933214,61.000000 18.866426,61.000000 17.263657,60.705120
	C15.164622,58.922947 13.601570,57.435654 11.897305,55.677761
	C10.857485,54.597073 9.958880,53.786987 9.001047,52.634491
	C7.982193,50.516483 7.022570,48.740883 6.040621,46.552254
	C5.978304,44.758263 5.938313,43.377304 5.929922,41.529739
	C6.230429,33.271957 4.844193,25.258957 9.304878,17.761267
	C13.493404,14.311743 18.110638,13.623130 23.413527,13.941841
	C25.250101,14.022589 26.663212,14.069223 27.993660,14.451008
	C26.924515,15.235346 25.938030,15.684535 24.538502,16.092400
	C22.744604,16.094927 21.363749,16.138779 19.615023,16.133688
	C15.803154,16.357738 16.805325,18.188843 18.066982,20.319099
	C19.175369,20.696098 20.078249,20.792862 21.189030,20.944040
	C21.396927,20.998455 21.825089,21.035950 22.090317,21.333422
	C24.598114,21.425825 26.840681,21.220757 29.298178,20.925377
	C29.800453,20.634048 29.915485,20.360533 29.994495,19.764816
	C30.425108,19.280491 30.719419,19.045864 31.381283,18.870750
	C32.492535,18.943527 33.236240,18.956785 34.209740,19.085598
	C34.874447,19.474239 35.309357,19.747332 35.996162,20.272430
	C37.159454,20.638699 38.070854,20.752956 39.389236,20.908577
	C41.588642,20.635639 43.381069,20.321339 45.333916,19.749180
	C45.262592,16.674026 43.759907,15.529838 40.667568,16.019985
	C39.555992,15.347373 38.759216,14.718678 38.374626,14.065894
	C41.829773,14.188480 44.725460,14.109119 44.999504,10.003788
	C45.004951,10.009994 45.024239,10.021280 45.331444,10.157870
	C47.089520,10.868347 48.540390,11.442233 50.106361,12.272556
	C50.491974,13.022666 50.762489,13.516336 51.064346,14.350863
	C53.057007,16.462297 55.018322,18.232876 56.946644,20.371735
	C56.960236,22.830963 57.006821,24.921911 57.034363,27.448593
	C57.033089,29.925648 57.050861,31.966972 57.050598,34.469063
	C57.021000,37.594566 57.110195,40.264248 56.979721,42.923153
	C56.516781,52.357418 51.215279,57.681492 41.552780,58.041317
	C38.403137,58.030766 35.702202,58.048264 32.553337,58.045250
	C28.297033,58.618679 23.652620,56.092083 21.000000,61.000000
M42.081150,26.399427
	C38.252834,28.747492 36.549011,33.994038 38.610836,37.085491
	C40.644970,40.135441 46.064476,41.385330 48.419918,38.622810
	C50.064392,36.694130 51.161961,33.202122 50.656017,30.797129
	C49.919327,27.295317 46.431870,26.014107 42.081150,26.399427
M13.031743,37.231525
	C17.509298,41.069527 22.268036,41.118305 23.830753,36.804276
	C24.744839,34.280861 24.666819,30.356068 23.230225,28.362034
	C22.135904,26.843081 17.856606,26.396667 15.604698,27.194988
	C11.274637,28.730032 11.126146,32.533463 13.031743,37.231525
z"/>
<path fill="#FFFFFF" opacity="1.000000" stroke="none"
	d="
M42.001480,58.069366
	C51.215279,57.681492 56.516781,52.357418 56.979721,42.923153
	C57.110195,40.264248 57.021000,37.594566 57.440395,34.465916
	C58.898819,34.001335 59.949409,34.000668 61.000000,34.000000
	C61.000000,42.913216 61.000000,51.826427 61.000000,61.000000
	C54.982067,61.000000 48.960411,61.000000 42.469376,60.632362
	C42.000492,59.532940 42.000984,58.801155 42.001480,58.069366
z"/>
<path fill="#F8FBCF" opacity="1.000000" stroke="none"
	d="
M22.990061,13.907726
	C18.110638,13.623130 13.493404,14.311743 8.892202,17.764166
	C5.818403,18.334391 3.409202,18.667194 1.000000,19.000000
	C1.000000,17.285641 1.000000,15.571283 1.359509,13.383579
	C7.146009,10.940227 12.573001,8.970222 18.206051,7.263349
	C19.938093,9.653563 21.464077,11.780644 22.990061,13.907726
z"/>
<path fill="#F8FAC7" opacity="1.000000" stroke="none"
	d="
M1.000000,19.468622
	C3.409202,18.667194 5.818403,18.334391 8.640282,17.998688
	C4.844193,25.258957 6.230429,33.271957 5.524459,41.531017
	C3.724930,41.999268 2.362465,41.999634 1.000000,42.000000
	C1.000000,34.645748 1.000000,27.291496 1.000000,19.468622
z"/>
<path fill="#C7FCE6" opacity="1.000000" stroke="none"
	d="
M51.000000,1.000000
	C54.246468,1.000000 57.492939,1.000000 61.000000,1.000000
	C61.000000,3.669701 61.000000,6.343802 60.593994,9.568281
	C56.792454,10.412325 53.396912,10.705991 50.013763,10.588082
	C50.350769,7.117671 50.675385,4.058836 51.000000,1.000000
z"/>
<path fill="#F8FCD7" opacity="1.000000" stroke="none"
	d="
M17.999992,7.000216
	C12.573001,8.970222 7.146009,10.940227 1.359509,12.955116
	C1.000000,11.611111 1.000000,10.222222 1.369840,8.409109
	C5.857449,7.270044 8.653835,4.992537 10.000000,1.000000
	C12.370557,1.000000 14.741115,1.000000 17.555878,1.428472
	C18.000051,3.571368 18.000023,5.285792 17.999992,7.000216
z"/>
<path fill="#E5FBD6" opacity="1.000000" stroke="none"
	d="
M27.000000,1.000000
	C28.714376,1.000000 30.428751,1.000000 32.612652,1.338666
	C34.721790,3.784778 36.361401,5.892225 37.752022,8.219795
	C36.334576,10.259294 35.166119,12.078670 33.691689,13.794475
	C32.601166,12.498597 31.816608,11.306290 30.984421,9.756582
	C29.624525,6.599455 28.312262,3.799728 27.000000,1.000000
z"/>
<path fill="#CAFCDF" opacity="1.000000" stroke="none"
	d="
M50.550018,1.000000
	C50.675385,4.058836 50.350769,7.117671 50.012032,10.842209
	C49.995701,11.677313 49.993484,11.846716 49.991264,12.016119
	C48.540390,11.442233 47.089520,10.868347 45.315636,9.783154
	C43.995083,6.514565 42.997540,3.757283 42.000000,1.000000
	C44.700012,1.000000 47.400028,1.000000 50.550018,1.000000
z"/>
<path fill="#F3FBD2" opacity="1.000000" stroke="none"
	d="
M18.206051,7.263349
	C18.000023,5.285792 18.000051,3.571368 18.000042,1.428472
	C18.444445,1.000000 18.888889,1.000000 19.709156,1.342888
	C23.173689,5.298099 26.262400,8.910422 29.265760,12.741022
	C29.063139,13.259572 28.988777,13.570135 28.736462,13.944808
	C28.515598,13.998627 28.076321,14.115858 28.076321,14.115858
	C26.663212,14.069223 25.250101,14.022589 23.413527,13.941841
	C21.464077,11.780644 19.938093,9.653563 18.206051,7.263349
z"/>
<path fill="#D6FBDA" opacity="1.000000" stroke="none"
	d="
M41.550018,1.000000
	C42.997540,3.757283 43.995083,6.514565 45.008430,9.646564
	C45.024239,10.021280 45.004951,10.009994 44.637512,9.958942
	C42.180389,9.271819 40.090702,8.635746 38.001015,7.999672
	C36.361401,5.892225 34.721790,3.784778 33.041088,1.338666
	C35.700012,1.000000 38.400028,1.000000 41.550018,1.000000
z"/>
<path fill="#EEFBD5" opacity="1.000000" stroke="none"
	d="
M29.351109,12.522745
	C26.262400,8.910422 23.173689,5.298099 20.042490,1.342888
	C22.041666,1.000000 24.083334,1.000000 26.562500,1.000000
	C28.312262,3.799728 29.624525,6.599455 30.849720,10.013557
	C30.292135,11.259536 29.821621,11.891140 29.351109,12.522745
z"/>
<path fill="#FBFCDF" opacity="1.000000" stroke="none"
	d="
M9.060276,52.976898
	C9.958880,53.786987 10.857485,54.597073 11.650282,55.947929
	C8.029651,57.659130 4.514825,58.829567 1.000000,60.000000
	C1.000000,58.285641 1.000000,56.571285 1.408154,54.426880
	C4.230965,53.656857 6.645620,53.316879 9.060276,52.976898
z"/>
<path fill="#FBFCDE" opacity="1.000000" stroke="none"
	d="
M9.508951,1.000000
	C8.653835,4.992537 5.857449,7.270044 1.369840,7.992443
	C1.000000,5.739240 1.000000,3.478481 1.000000,1.000000
	C3.670655,1.000000 6.344279,1.000000 9.508951,1.000000
z"/>
<path fill="#FCFDE7" opacity="1.000000" stroke="none"
	d="
M1.000000,60.500000
	C4.514825,58.829567 8.029651,57.659130 11.791497,56.218529
	C13.601570,57.435654 15.164622,58.922947 16.863836,60.705120
	C11.666667,61.000000 6.333333,61.000000 1.000000,60.500000
z"/>
<path fill="#DBFEEE" opacity="1.000000" stroke="none"
	d="
M56.979641,20.003454
	C55.018322,18.232876 53.057007,16.462297 51.472267,14.360540
	C54.899227,14.352909 57.949615,14.676455 61.000000,15.000000
	C61.000000,16.388889 61.000000,17.777779 60.598278,19.583527
	C59.124252,20.001408 58.051945,20.002432 56.979641,20.003454
z"/>
<path fill="#D1FDEA" opacity="1.000000" stroke="none"
	d="
M61.000000,14.583334
	C57.949615,14.676455 54.899227,14.352909 51.440926,14.019685
	C50.762489,13.516336 50.491974,13.022666 50.106361,12.272557
	C49.993484,11.846716 49.995701,11.677313 49.999641,11.253782
	C53.396912,10.705991 56.792454,10.412325 60.593994,10.059330
	C61.000000,11.388889 61.000000,12.777778 61.000000,14.583334
z"/>
<path fill="#FAFBD6" opacity="1.000000" stroke="none"
	d="
M9.001047,52.634491
	C6.645620,53.316879 4.230965,53.656857 1.408154,53.998417
	C1.000000,52.285641 1.000000,50.571285 1.375720,48.428001
	C3.188608,47.654476 4.625778,47.309879 6.062947,46.965282
	C7.022570,48.740883 7.982193,50.516483 9.001047,52.634491
z"/>
<path fill="#FEFEF5" opacity="1.000000" stroke="none"
	d="
M21.460636,61.000000
	C23.652620,56.092083 28.297033,58.618679 32.552864,58.409874
	C33.000210,59.530010 33.000107,60.265003 33.000000,61.000000
	C29.307091,61.000000 25.614182,61.000000 21.460636,61.000000
z"/>
<path fill="#ECFEF6" opacity="1.000000" stroke="none"
	d="
M56.946644,20.371735
	C58.051945,20.002432 59.124252,20.001408 60.598278,20.000191
	C61.000000,22.041666 61.000000,24.083334 60.604000,26.562592
	C59.156467,27.004408 58.104939,27.008635 57.053406,27.012859
	C57.006821,24.921911 56.960236,22.830963 56.946644,20.371735
z"/>
<path fill="#F9FACE" opacity="1.000000" stroke="none"
	d="
M6.040622,46.552254
	C4.625778,47.309879 3.188608,47.654476 1.375720,47.999535
	C1.000000,46.285641 1.000000,44.571285 1.000000,42.428463
	C2.362465,41.999634 3.724930,41.999268 5.492858,41.997620
	C5.938313,43.377304 5.978304,44.758263 6.040622,46.552254
z"/>
<path fill="#F8FEFB" opacity="1.000000" stroke="none"
	d="
M57.034363,27.448591
	C58.104939,27.008635 59.156467,27.004408 60.604000,27.000092
	C61.000000,29.041708 61.000000,31.083414 61.000000,33.562561
	C59.949409,34.000668 58.898819,34.001335 57.458427,34.005150
	C57.050861,31.966972 57.033089,29.925648 57.034363,27.448591
z"/>
<path fill="#FEFFFA" opacity="1.000000" stroke="none"
	d="
M33.449055,61.000000
	C33.000107,60.265003 33.000210,59.530010 33.000790,58.430389
	C35.702202,58.048264 38.403137,58.030766 41.552780,58.041317
	C42.000984,58.801155 42.000492,59.532940 42.000000,60.632362
	C39.299370,61.000000 36.598740,61.000000 33.449055,61.000000
z"/>
<path fill="#000202" opacity="1.000000" stroke="none"
	d="
M42.444397,26.218262
	C46.431870,26.014107 49.919327,27.295317 50.656017,30.797129
	C51.161961,33.202122 50.064392,36.694130 48.419918,38.622810
	C46.064476,41.385330 40.644970,40.135441 38.610836,37.085491
	C36.549011,33.994038 38.252834,28.747492 42.444397,26.218262
z"/>
<path fill="#000202" opacity="1.000000" stroke="none"
	d="
M12.963522,36.824154
	C11.126146,32.533463 11.274637,28.730032 15.604698,27.194988
	C17.856606,26.396667 22.135904,26.843081 23.230225,28.362034
	C24.666819,30.356068 24.744839,34.280861 23.830753,36.804276
	C22.268036,41.118305 17.509298,41.069527 12.963522,36.824154
z"/>
<path fill="#E2FCDD" opacity="1.000000" stroke="none"
	d="
M37.752022,8.219795
	C40.090702,8.635746 42.180389,9.271819 44.632065,9.952738
	C44.725460,14.109119 41.829773,14.188480 38.002899,14.038986
	C36.475044,14.075000 35.731098,14.113834 34.739983,14.087892
	C34.327770,13.981425 34.162720,13.939736 33.997665,13.898046
	C35.166119,12.078670 36.334576,10.259294 37.752022,8.219795
z"/>
<path fill="#89F7C1" opacity="1.000000" stroke="none"
	d="
M34.987152,14.152669
	C35.731098,14.113834 36.475044,14.075000 37.590717,14.063074
	C38.759216,14.718678 39.555992,15.347373 40.673210,16.404442
	C41.003139,17.863613 41.012630,18.894411 40.685051,19.948097
	C39.897915,19.982687 39.447849,19.994392 38.593147,19.996826
	C37.373760,19.998510 36.559017,20.009466 35.744270,20.020422
	C35.309357,19.747332 34.874447,19.474239 34.262157,18.845697
	C34.084782,18.490246 34.164085,18.005249 34.369675,17.816494
	C34.710499,17.094671 34.845737,16.561602 34.986691,15.715239
	C34.990658,14.985519 34.988907,14.569095 34.987152,14.152669
z"/>
<path fill="#59F094" opacity="1.000000" stroke="none"
	d="
M19.982893,16.182631
	C21.363749,16.138779 22.744604,16.094927 24.556009,16.307076
	C24.986559,16.563078 25.004244,16.994801 25.118336,17.208500
	C25.431101,17.687664 25.683493,17.884123 26.155804,18.244717
	C26.880960,18.986141 27.439919,19.494431 27.996647,20.247463
	C27.994417,20.492208 27.985783,20.981644 27.548138,20.983059
	C25.348690,21.001633 23.586889,21.018791 21.825089,21.035950
	C21.825089,21.035950 21.396927,20.998455 21.200981,20.718689
	C21.005037,20.438921 21.009533,19.986795 20.971804,19.656879
	C20.617014,18.278851 20.299953,17.230742 19.982893,16.182631
z"/>
<path fill="#71F3AB" opacity="1.000000" stroke="none"
	d="
M25.004244,16.994801
	C25.004244,16.994801 24.986559,16.563078 24.969051,16.348400
	C25.938030,15.684535 26.924515,15.235346 27.993660,14.451008
	C28.076321,14.115858 28.515598,13.998627 28.880857,14.240033
	C31.157736,14.997137 33.069355,15.512835 34.980972,16.028532
	C34.845737,16.561602 34.710499,17.094671 33.971939,17.808765
	C32.581871,18.002052 31.795122,18.014317 30.607826,18.021429
	C29.139069,18.010147 28.070858,18.004015 26.824059,17.764681
	C26.098392,17.352585 25.551319,17.173693 25.004244,16.994801
z"/>
<path fill="#91F8C9" opacity="1.000000" stroke="none"
	d="
M41.022118,19.925211
	C41.012630,18.894411 41.003139,17.863613 40.988014,16.448357
	C43.759907,15.529838 45.262592,16.674026 44.914452,19.740536
	C43.230419,19.968237 42.126266,19.946724 41.022118,19.925211
z"/>
<path fill="#4EED8C" opacity="1.000000" stroke="none"
	d="
M19.615023,16.133688
	C20.299953,17.230742 20.617014,18.278851 20.578766,19.662363
	C19.436131,20.011465 18.648804,20.025164 17.861475,20.038864
	C16.805325,18.188843 15.803154,16.357738 19.615023,16.133688
z"/>
<path fill="#3CD991" opacity="1.000000" stroke="none"
	d="
M22.090317,21.333422
	C23.586889,21.018791 25.348690,21.001633 27.822556,20.993523
	C28.717497,21.006945 28.900373,21.011316 29.083250,21.015686
	C26.840681,21.220757 24.598114,21.425825 22.090317,21.333422
z"/>
<path fill="#60F19A" opacity="1.000000" stroke="none"
	d="
M27.002647,17.997885
	C28.070858,18.004015 29.139069,18.010147 30.608345,18.217440
	C31.009409,18.418602 31.013731,18.811235 31.013731,18.811235
	C30.719419,19.045864 30.425108,19.280491 29.685669,19.759743
	C28.826654,20.003819 28.412766,20.003267 27.998875,20.002716
	C27.439919,19.494431 26.880960,18.986141 26.409119,18.240644
	C26.665037,18.001585 26.833841,17.999735 27.002647,17.997885
z"/>
<path fill="#6CEBAF" opacity="1.000000" stroke="none"
	d="
M40.685051,19.948097
	C42.126266,19.946724 43.230419,19.968237 44.754036,19.998394
	C43.381069,20.321339 41.588642,20.635639 39.394516,20.693718
	C38.992821,20.437498 38.997784,20.006098 38.997784,20.006100
	C39.447849,19.994392 39.897915,19.982687 40.685051,19.948097
z"/>
<path fill="#63E9A8" opacity="1.000000" stroke="none"
	d="
M38.593147,19.996826
	C38.997784,20.006098 38.992821,20.437498 38.987541,20.652357
	C38.070854,20.752956 37.159454,20.638699 35.996162,20.272430
	C36.559017,20.009466 37.373760,19.998510 38.593147,19.996826
z"/>
<path fill="#3FE18A" opacity="1.000000" stroke="none"
	d="
M18.066982,20.319099
	C18.648804,20.025164 19.436131,20.011465 20.616497,19.992279
	C21.009533,19.986795 21.005037,20.438921 20.993084,20.664272
	C20.078249,20.792862 19.175369,20.696098 18.066982,20.319099
z"/>
<path fill="#4FE398" opacity="1.000000" stroke="none"
	d="
M31.381283,18.870750
	C31.013731,18.811235 31.009409,18.418602 31.008892,18.222591
	C31.795122,18.014317 32.581871,18.002052 33.766350,17.997520
	C34.164085,18.005249 34.084782,18.490246 34.032364,18.730145
	C33.236240,18.956785 32.492535,18.943527 31.381283,18.870750
z"/>
<path fill="#4FE398" opacity="1.000000" stroke="none"
	d="
M27.996647,20.247463
	C28.412766,20.003267 28.826654,20.003819 29.549372,20.009441
	C29.915485,20.360533 29.800453,20.634048 29.298178,20.925377
	C28.900373,21.011316 28.717497,21.006945 28.260201,20.992107
	C27.985783,20.981644 27.994417,20.492208 27.996647,20.247463
z"/>
<path fill="#83F6BC" opacity="1.000000" stroke="none"
	d="
M34.986691,15.715239
	C33.069355,15.512835 31.157736,14.997137 29.101721,14.186214
	C28.988777,13.570135 29.063139,13.259572 29.265760,12.741022
	C29.821621,11.891140 30.292135,11.259536 30.897352,10.370956
	C31.816608,11.306290 32.601166,12.498597 33.691692,13.794476
	C34.162720,13.939736 34.327770,13.981425 34.739983,14.087892
	C34.988907,14.569095 34.990658,14.985519 34.986691,15.715239
z"/>
<path fill="#65F29F" opacity="1.000000" stroke="none"
	d="
M26.824059,17.764681
	C26.833841,17.999735 26.665037,18.001585 26.242916,18.007507
	C25.683493,17.884123 25.431101,17.687664 25.118336,17.208500
	C25.551319,17.173693 26.098392,17.352585 26.824059,17.764681
z"/>
</svg>
